# xmcd CD database file generated by OrangeCD 6.2
#
# Track frame offsets:
#	150
#	16364
#	32944
#	48413
#	62999
#	72324
#	88916
#	104759
#	122029
#	139195
#	155011
#	165668
#	183641
#	200650
#	224448
#	240401
#	251462
#	264884
#	279356
#	293528
#
# Disc length: 4114 seconds
#
# Revision: 1
# Processed by: cddbd v1.5.2PL0 Copyright (c) Steve Scherf et al.
# Submitted via: OrangeCD 6.2
#
DISCID=32101014
DTITLE=Reba McEntire - Christmas Collection
DYEAR=2005
DGENRE=
TTITLE0=This Is My Prayer For You
TTITLE1=I Saw Mama Kissing Santa Claus
TTITLE2=One Child One day
TTITLE3=Mary Did You Know
TTITLE4=Up On The Housetop
TTITLE5=The Angels Sang
TTITLE6=Santa Claus Is Coming Back To Town
TTITLE7=The Secret Of Giving
TTITLE8=This Christmas
TTITLE9='Til The Season Comes 'Round Again
TTITLE10=Away In A Manger
TTITLE11=On This Day
TTITLE12=O Holy Night
TTITLE13=The Christmas Guest
TTITLE14=Silent Night
TTITLE15=Happy Birthday Jesus (I'll Open This One For You)
TTITLE16=White Christmas
TTITLE17=I'll Be Home For Christmas
TTITLE18=A Christmas Letter
TTITLE19=The Christmas Song (Chestnuts Roasting On A Open Fire)
EXTD=
EXTT0=
EXTT1=
EXTT2=
EXTT3=
EXTT4=
EXTT5=
EXTT6=
EXTT7=
EXTT8=
EXTT9=
EXTT10=
EXTT11=
EXTT12=
EXTT13=
EXTT14=
EXTT15=
EXTT16=
EXTT17=
EXTT18=
EXTT19=
PLAYORDER=
